<?xml version="1.0" encoding="UTF-8"?>
<svg width="27px" height="27px" viewBox="0 0 27 27" version="1.1" xmlns="http://www.w3.org/2000/svg" xmlns:xlink="http://www.w3.org/1999/xlink">
    <!-- Generator: Sketch 46.2 (44496) - http://www.bohemiancoding.com/sketch -->
    <title>path0_stroke</title>
    <desc>Created with Sketch.</desc>
    <defs></defs>
    <g id="Page-1" stroke="none" stroke-width="1" fill="none" fill-rule="evenodd">
        <path d="M19.3852,25.1599 L17.964,25.6396 L19.3852,25.1599 Z M13.9737,9.12591 L12.5525,9.60558 L13.9737,9.12591 Z M4.5,3 L22.5,3 L22.5,0 L4.5,0 L4.5,3 Z M24,4.5 L24,22.5 L27,22.5 L27,4.5 L24,4.5 Z M3,22.5 L3,4.5 L0,4.5 L0,22.5 L3,22.5 Z M7.14104,24 L4.5,24 L4.5,27 L7.14104,27 L7.14104,24 Z M22.5,24 L19.859,24 L19.859,27 L22.5,27 L22.5,24 Z M9.03603,25.6396 L14.4475,9.60558 L11.605,8.64625 L6.19355,24.6802 L9.03603,25.6396 Z M12.5525,9.60558 L17.964,25.6396 L20.8065,24.6802 L15.395,8.64625 L12.5525,9.60558 Z M4.5,0 C2.014719,0 0,2.014719 0,4.5 L3,4.5 C3,3.67157 3.67157,3 4.5,3 L4.5,0 Z M22.5,3 C23.3284,3 24,3.67157 24,4.5 L27,4.5 C27,2.014719 24.9853,0 22.5,0 L22.5,3 Z M24,22.5 C24,23.3284 23.3284,24 22.5,24 L22.5,27 C24.9853,27 27,24.9853 27,22.5 L24,22.5 Z M0,22.5 C0,24.9853 2.014719,27 4.5,27 L4.5,24 C3.67157,24 3,23.3284 3,22.5 L0,22.5 Z M7.14104,27 C7.99915,27 8.76162,26.4526 9.03603,25.6396 L6.19355,24.6802 C6.33075,24.2737 6.71199,24 7.14104,24 L7.14104,27 Z M19.859,24 C20.288,24 20.6692,24.2737 20.8065,24.6802 L17.964,25.6396 C18.2384,26.4526 19.0009,27 19.859,27 L19.859,24 Z M14.4475,9.60558 C14.1414,10.51254 12.8586,10.51254 12.5525,9.60558 L15.395,8.64625 C14.7828,6.83232 12.2172,6.83232 11.605,8.64625 L14.4475,9.60558 Z" id="path0_stroke" fill="#FFFFFF" fill-rule="nonzero"></path>
    </g>
</svg>